<svg id="Layer_1" data-name="Layer 1" xmlns="http://www.w3.org/2000/svg" viewBox="0 0 80 80"><defs><style>.cls-1{fill:#ec2427;}</style></defs><title>Artboard 1</title><path class="cls-1" d="M20,40A20,20,0,0,1,34.82,20.68L29.64,1.35a40,40,0,0,0,0,77.3l5.18-19.33A20,20,0,0,1,20,40Z"/><path class="cls-1" d="M80,40A40,40,0,0,0,50.36,1.35L45.18,20.68a20,20,0,0,1,0,38.64l5.18,19.33A40,40,0,0,0,80,40Z"/><path class="cls-1" d="M20,40A20,20,0,0,1,34.82,20.68L29.64,1.35a40,40,0,0,0,0,77.3l5.18-19.33A20,20,0,0,1,20,40Z"/><path class="cls-1" d="M80,40A40,40,0,0,0,50.36,1.35L45.18,20.68a20,20,0,0,1,0,38.64l5.18,19.33A40,40,0,0,0,80,40Z"/><path class="cls-1" d="M20,40A20,20,0,0,1,34.82,20.68L29.64,1.35a40,40,0,0,0,0,77.3l5.18-19.33A20,20,0,0,1,20,40Z"/><path class="cls-1" d="M80,40A40,40,0,0,0,50.36,1.35L45.18,20.68a20,20,0,0,1,0,38.64l5.18,19.33A40,40,0,0,0,80,40Z"/><path class="cls-1" d="M20,40A20,20,0,0,1,34.82,20.68L29.64,1.35a40,40,0,0,0,0,77.3l5.18-19.33A20,20,0,0,1,20,40Z"/><path class="cls-1" d="M80,40A40,40,0,0,0,50.36,1.35L45.18,20.68a20,20,0,0,1,0,38.64l5.18,19.33A40,40,0,0,0,80,40Z"/></svg>