<svg id="Layer_1" data-name="Layer 1" xmlns="http://www.w3.org/2000/svg" viewBox="0 0 1819.94 374.63"><defs><style>.cls-1{fill:#231f20;}</style></defs><title>Logo 2019_RGB</title><path class="cls-1" d="M1672.9,13.35l-8.78,32.75a33.77,33.77,0,0,0-17.55,0l-8.78-32.75a68.15,68.15,0,0,1,35.11,0Z"/><path class="cls-1" d="M457.23,257.26c25.52,20.52,57.7,34.95,84.33,34.95,28.84,0,41.05-9.43,41.05-25.52,0-17.2-18.31-22.75-48.82-34.95l-44.94-18.87c-38.84-15.53-72.68-48.26-72.68-100.41C416.17,50.87,471.65.39,550.43.39,591.49.39,637,15.92,670.27,48.65l-47.71,59.92c-24.42-17.2-45.5-26.07-72.13-26.07-23.3,0-37.72,8.32-37.72,24.41,0,17.2,20.53,23.3,53.26,36.06l43.83,17.2c44.93,17.75,70.45,48.82,70.45,98.75,0,61-51,115.4-140.92,115.4-45.49,0-97.64-16.64-136.48-51.6Z"/><path class="cls-1" d="M1310.76,7H1195.35L1085.49,367.65h97.66l17.75-76.57h79.74l-11.41-51.73a28.08,28.08,0,0,0-27.43-22h-23.71l6.1-24.94c8.9-34.44,17.74-77.67,25.54-114.31h2.2c8.9,36,72.35,289.59,72.35,289.59h96.29Z"/><path class="cls-1" d="M1455,7.05h95.42V287.77H1686.9v79.89H1455Z"/><path class="cls-1" d="M1065.46,280.7a186.84,186.84,0,0,1-161.87,93.43c-103.22,0-186.87-83.67-186.87-186.87A186.89,186.89,0,0,1,1065.44,93.8l-80.92,46.74a93.44,93.44,0,1,0,0,93.43Z"/><path class="cls-1" d="M97.12,187.44a96.85,96.85,0,0,1,71.74-93.53L143.79.39a193.67,193.67,0,0,0,0,374.1L168.86,281A96.85,96.85,0,0,1,97.12,187.44Z"/><path class="cls-1" d="M387.54,187.44A193.69,193.69,0,0,0,244.06.39L219,93.91A96.84,96.84,0,0,1,219,281l25.07,93.52A193.69,193.69,0,0,0,387.54,187.44Z"/><path class="cls-1" d="M97.12,187.44a96.85,96.85,0,0,1,71.74-93.53L143.79.39a193.67,193.67,0,0,0,0,374.1L168.86,281A96.85,96.85,0,0,1,97.12,187.44Z"/><path class="cls-1" d="M387.54,187.44A193.69,193.69,0,0,0,244.06.39L219,93.91A96.84,96.84,0,0,1,219,281l25.07,93.52A193.69,193.69,0,0,0,387.54,187.44Z"/><path class="cls-1" d="M97.12,187.44a96.85,96.85,0,0,1,71.74-93.53L143.79.39a193.67,193.67,0,0,0,0,374.1L168.86,281A96.85,96.85,0,0,1,97.12,187.44Z"/><path class="cls-1" d="M387.54,187.44A193.69,193.69,0,0,0,244.06.39L219,93.91A96.84,96.84,0,0,1,219,281l25.07,93.52A193.69,193.69,0,0,0,387.54,187.44Z"/><path class="cls-1" d="M97.12,187.44a96.85,96.85,0,0,1,71.74-93.53L143.79.39a193.67,193.67,0,0,0,0,374.1L168.86,281A96.85,96.85,0,0,1,97.12,187.44Z"/><path class="cls-1" d="M387.54,187.44A193.69,193.69,0,0,0,244.06.39L219,93.91A96.84,96.84,0,0,1,219,281l25.07,93.52A193.69,193.69,0,0,0,387.54,187.44Z"/><path d="M1687.46,78.4h18.46V33.89h-16.29V19.51c9.77-1.9,16-4.34,22.53-8.42h17.09V78.4h15.47V97.13h-57.26Z"/><path d="M1769.42,74.06c2.72,3,8.15,6,13,6,8.55,0,15.06-5.84,15.88-23.21-4.21,5.57-11.54,8.55-16.15,8.55-14.66,0-26.06-8.14-26.06-26.59S1769.7,9.47,1786,9.47c16.55,0,33.65,11.94,33.65,43.15s-17.1,46.13-35.55,46.13a37.35,37.35,0,0,1-26.87-10.85Zm28.36-32.3c-1.9-12.07-7-14.92-11.26-14.92-4.88,0-9.23,2.85-9.23,11.94,0,8.27,4.62,10.31,9.5,10.31C1790.73,49.09,1794.66,47.05,1797.78,41.76Z"/></svg>