<?xml version="1.0" encoding="utf-8"?>
<!-- Generator: Adobe Illustrator 22.0.0, SVG Export Plug-In . SVG Version: 6.00 Build 0)  -->
<svg version="1.1" id="Layer_1" xmlns="http://www.w3.org/2000/svg" xmlns:xlink="http://www.w3.org/1999/xlink" x="0px" y="0px"
	 viewBox="0 0 1819.9 374.6" style="enable-background:new 0 0 1819.9 374.6;" xml:space="preserve">
<style type="text/css">
	.st0{fill:#FFFFFF;}
	.st1{fill:#231F20;}
	.st2{fill:#EA272B;}
</style>
<g>
	<path class="st1" d="M1672.9,13.3l-8.8,32.7c-2.8-0.8-5.7-1.2-8.8-1.2c-3,0-6,0.4-8.8,1.2l-8.8-32.7c5.6-1.5,11.5-2.3,17.6-2.3
		C1661.4,11.1,1667.3,11.9,1672.9,13.3z"/>
	<g>
		<path class="st1" d="M457.2,257.3c25.5,20.5,57.7,35,84.3,35c28.8,0,41.1-9.4,41.1-25.5c0-17.2-18.3-22.7-48.8-35l-44.9-18.9
			c-38.8-15.5-72.7-48.3-72.7-100.4c0-61.6,55.5-112.1,134.3-112.1c41.1,0,86.5,15.5,119.8,48.3l-47.7,59.9
			c-24.4-17.2-45.5-26.1-72.1-26.1c-23.3,0-37.7,8.3-37.7,24.4c0,17.2,20.5,23.3,53.3,36.1l43.8,17.2c44.9,17.8,70.5,48.8,70.5,98.8
			c0,61-51,115.4-140.9,115.4c-45.5,0-97.6-16.6-136.5-51.6L457.2,257.3z"/>
		<path class="st1" d="M1310.8,7h-115.4l-109.9,360.6h97.7l17.7-76.6h79.7l-11.4-51.7c-2.8-12.9-14.2-22-27.4-22h-23.7l6.1-24.9
			c8.9-34.4,17.7-77.7,25.5-114.3h2.2c8.9,36,72.3,289.6,72.3,289.6h96.3L1310.8,7z"/>
		<path class="st1" d="M1455,7h95.4v280.7h136.5v79.9H1455V7z"/>
		<path class="st1" d="M1065.5,280.7c-32.3,55.8-92.7,93.4-161.9,93.4c-103.2,0-186.9-83.7-186.9-186.9S800.4,0.4,903.6,0.4
			c69.2,0,129.5,37.6,161.9,93.4l-80.9,46.7c-16.1-27.9-46.3-46.7-80.9-46.7c-51.6,0-93.4,41.8-93.4,93.4
			c0,51.6,41.8,93.4,93.4,93.4c34.6,0,64.8-18.8,80.9-46.7L1065.5,280.7z"/>
		<g>
			<path class="st1" d="M97.1,187.4c0-44.8,30.4-82.5,71.7-93.5L143.8,0.4C61.2,22.5,0.3,97.8,0.3,187.4s60.9,165,143.5,187.1
				l25.1-93.5C127.5,269.9,97.1,232.2,97.1,187.4z"/>
			<path class="st1" d="M387.5,187.4c0-89.6-60.9-165-143.5-187.1L219,93.9c41.3,11,71.7,48.7,71.7,93.5c0,44.8-30.4,82.5-71.7,93.5
				l25.1,93.5C326.7,352.4,387.5,277,387.5,187.4z"/>
			<path class="st1" d="M97.1,187.4c0-44.8,30.4-82.5,71.7-93.5L143.8,0.4C61.2,22.5,0.3,97.8,0.3,187.4s60.9,165,143.5,187.1
				l25.1-93.5C127.5,269.9,97.1,232.2,97.1,187.4z"/>
			<path class="st1" d="M387.5,187.4c0-89.6-60.9-165-143.5-187.1L219,93.9c41.3,11,71.7,48.7,71.7,93.5c0,44.8-30.4,82.5-71.7,93.5
				l25.1,93.5C326.7,352.4,387.5,277,387.5,187.4z"/>
			<path class="st1" d="M97.1,187.4c0-44.8,30.4-82.5,71.7-93.5L143.8,0.4C61.2,22.5,0.3,97.8,0.3,187.4s60.9,165,143.5,187.1
				l25.1-93.5C127.5,269.9,97.1,232.2,97.1,187.4z"/>
			<path class="st1" d="M387.5,187.4c0-89.6-60.9-165-143.5-187.1L219,93.9c41.3,11,71.7,48.7,71.7,93.5c0,44.8-30.4,82.5-71.7,93.5
				l25.1,93.5C326.7,352.4,387.5,277,387.5,187.4z"/>
			<path class="st1" d="M97.1,187.4c0-44.8,30.4-82.5,71.7-93.5L143.8,0.4C61.2,22.5,0.3,97.8,0.3,187.4s60.9,165,143.5,187.1
				l25.1-93.5C127.5,269.9,97.1,232.2,97.1,187.4z"/>
			<path class="st1" d="M387.5,187.4c0-89.6-60.9-165-143.5-187.1L219,93.9c41.3,11,71.7,48.7,71.7,93.5c0,44.8-30.4,82.5-71.7,93.5
				l25.1,93.5C326.7,352.4,387.5,277,387.5,187.4z"/>
		</g>
	</g>
</g>
<g>
	<path d="M1683.4,83.8c20.4-18.7,36.1-33.1,36.1-44.8c0-7.7-4.3-11.4-10.6-11.4c-5.7,0-10,4.1-14.1,8.1l-12.5-12.5
		c9-9.5,17.1-13.8,29.9-13.8c17.4,0,29.6,11.1,29.6,28.2c0,13.8-13,29-24.7,41c4.3-0.5,10.6-1.1,14.4-1.1h14.4v19.5h-62.4V83.8z"/>
	<path d="M1756.4,53.7c0-29.4,13-44.2,32-44.2c19,0,32,14.9,32,44.2c0,29.4-13,45.1-32,45.1C1769.4,98.8,1756.4,83.1,1756.4,53.7z
		 M1798.5,53.7c0-22.8-4.6-26.3-10-26.3s-10,3.5-10,26.3s4.6,27.1,10,27.1S1798.5,76.5,1798.5,53.7z"/>
</g>
</svg>
